HIERARCHY
ROOT Zhanghao:Solving:Hips
{
	OFFSET 0.000000 0.000000 0.000000
	CHANNELS 6 Xposition Yposition Zposition Xrotation Yrotation Zrotation
	JOINT Zhanghao:Solving:Spine
	{
		OFFSET 0.000000 -9.563771 2.098718
		CHANNELS 6 Xposition Yposition Zposition Xrotation Yrotation Zrotation
		JOINT Zhanghao:Solving:Spine1
		{
			OFFSET 0.000000 -9.562875 1.686196
			CHANNELS 6 Xposition Yposition Zposition Xrotation Yrotation Zrotation
			JOINT Zhanghao:Solving:Spine2
			{
				OFFSET 0.000000 -9.673449 0.846319
				CHANNELS 6 Xposition Yposition Zposition Xrotation Yrotation Zrotation
				JOINT Zhanghao:Solving:Spine3
				{
					OFFSET 0.000000 -9.710396 0.000000
					CHANNELS 6 Xposition Yposition Zposition Xrotation Yrotation Zrotation
					JOINT Zhanghao:Solving:Neck
					{
						OFFSET 0.000000 -12.484798 -1.248478
						CHANNELS 6 Xposition Yposition Zposition Xrotation Yrotation Zrotation
						JOINT Zhanghao:Solving:Neck1
						{
							OFFSET 0.000000 -5.748112 -0.502893
							CHANNELS 6 Xposition Yposition Zposition Xrotation Yrotation Zrotation
							JOINT Zhanghao:Solving:Head
							{
								OFFSET 0.000000 -5.682407 -1.001961
								CHANNELS 6 Xposition Yposition Zposition Xrotation Yrotation Zrotation
								JOINT Zhanghao:Solving:HeadEnd
								{
									OFFSET 0.000000 -9.728077 0.000002
									CHANNELS 6 Xposition Yposition Zposition Xrotation Yrotation Zrotation
									End Site
									{
										OFFSET 0.000000 -9.728081 0.000002
									}
								}
							}
						}
					}
					JOINT Zhanghao:Solving:RightShoulder
					{
						OFFSET 0.000000 -8.917713 -5.270916
						CHANNELS 6 Xposition Yposition Zposition Xrotation Yrotation Zrotation
						JOINT Zhanghao:Solving:RightArm
						{
							OFFSET -18.341640 -0.000008 0.000000
							CHANNELS 6 Xposition Yposition Zposition Xrotation Yrotation Zrotation
							JOINT Zhanghao:Solving:RightForeArm
							{
								OFFSET -27.519978 -0.000008 0.000000
								CHANNELS 6 Xposition Yposition Zposition Xrotation Yrotation Zrotation
								JOINT Zhanghao:Solving:RightHand
								{
									OFFSET -22.582626 -0.000008 0.000000
									CHANNELS 6 Xposition Yposition Zposition Xrotation Yrotation Zrotation
									JOINT Zhanghao:Solving:RightHandThumb1
									{
										OFFSET -4.292824 2.781349 -3.192099
										CHANNELS 6 Xposition Yposition Zposition Xrotation Yrotation Zrotation
										End Site
										{
											OFFSET -6.150612 -0.000004 -6.207481
										}
									}
									JOINT Zhanghao:Solving:RightHandMiddle1
									{
										OFFSET -11.447525 -0.000004 0.073382
										CHANNELS 6 Xposition Yposition Zposition Xrotation Yrotation Zrotation
										End Site
										{
											OFFSET -8.738586 -0.000004 0.000000
										}
									}
								}
							}
						}
					}
					JOINT Zhanghao:Solving:LeftShoulder
					{
						OFFSET 0.000000 -8.917713 -5.270916
						CHANNELS 6 Xposition Yposition Zposition Xrotation Yrotation Zrotation
						JOINT Zhanghao:Solving:LeftArm
						{
							OFFSET 18.341640 -0.000008 0.000000
							CHANNELS 6 Xposition Yposition Zposition Xrotation Yrotation Zrotation
							JOINT Zhanghao:Solving:LeftForeArm
							{
								OFFSET 27.519978 -0.000008 0.000000
								CHANNELS 6 Xposition Yposition Zposition Xrotation Yrotation Zrotation
								JOINT Zhanghao:Solving:LeftHand
								{
									OFFSET 22.582626 -0.000008 0.000000
									CHANNELS 6 Xposition Yposition Zposition Xrotation Yrotation Zrotation
									JOINT Zhanghao:Solving:LeftHandThumb1
									{
										OFFSET 4.292824 2.781349 -3.192099
										CHANNELS 6 Xposition Yposition Zposition Xrotation Yrotation Zrotation
										End Site
										{
											OFFSET 6.150612 -0.000004 -6.207481
										}
									}
									JOINT Zhanghao:Solving:LeftHandMiddle1
									{
										OFFSET 11.447525 -0.000004 0.073382
										CHANNELS 6 Xposition Yposition Zposition Xrotation Yrotation Zrotation
										End Site
										{
											OFFSET 8.738586 -0.000004 0.000000
										}
									}
								}
							}
						}
					}
				}
			}
		}
	}
	JOINT Zhanghao:Solving:RightUpLeg
	{
		OFFSET -9.107882 0.000000 0.000000
		CHANNELS 6 Xposition Yposition Zposition Xrotation Yrotation Zrotation
		JOINT Zhanghao:Solving:RightLeg
		{
			OFFSET 0.000000 38.746075 -0.000006
			CHANNELS 6 Xposition Yposition Zposition Xrotation Yrotation Zrotation
			JOINT Zhanghao:Solving:RightFoot
			{
				OFFSET 0.000000 37.141575 -0.000006
				CHANNELS 6 Xposition Yposition Zposition Xrotation Yrotation Zrotation
				JOINT Zhanghao:Solving:RightForeFoot
				{
					OFFSET 0.000000 3.208229 -0.000000
					CHANNELS 6 Xposition Yposition Zposition Xrotation Yrotation Zrotation
					JOINT Zhanghao:Solving:RightToeBase
					{
						OFFSET 0.000000 0.000000 -12.564445
						CHANNELS 6 Xposition Yposition Zposition Xrotation Yrotation Zrotation
						JOINT Zhanghao:Solving:RightToeBaseEnd
						{
							OFFSET 0.000000 0.000000 -4.358174
							CHANNELS 6 Xposition Yposition Zposition Xrotation Yrotation Zrotation
							End Site
							{
								OFFSET 0.000000 -4.358177 0.000000
							}
						}
					}
				}
			}
		}
	}
	JOINT Zhanghao:Solving:LeftUpLeg
	{
		OFFSET 9.107882 0.000000 0.000000
		CHANNELS 6 Xposition Yposition Zposition Xrotation Yrotation Zrotation
		JOINT Zhanghao:Solving:LeftLeg
		{
			OFFSET 0.000000 38.746075 -0.000006
			CHANNELS 6 Xposition Yposition Zposition Xrotation Yrotation Zrotation
			JOINT Zhanghao:Solving:LeftFoot
			{
				OFFSET 0.000000 37.141575 -0.000006
				CHANNELS 6 Xposition Yposition Zposition Xrotation Yrotation Zrotation
				JOINT Zhanghao:Solving:LeftForeFoot
				{
					OFFSET 0.000000 3.208229 -0.000000
					CHANNELS 6 Xposition Yposition Zposition Xrotation Yrotation Zrotation
					JOINT Zhanghao:Solving:LeftToeBase
					{
						OFFSET 0.000000 0.000000 -12.564445
						CHANNELS 6 Xposition Yposition Zposition Xrotation Yrotation Zrotation
						JOINT Zhanghao:Solving:LeftToeBaseEnd
						{
							OFFSET 0.000000 0.000000 -4.448388
							CHANNELS 6 Xposition Yposition Zposition Xrotation Yrotation Zrotation
							End Site
							{
								OFFSET 0.000000 -4.448387 0.000000
							}
						}
					}
				}
			}
		}
	}
}
MOTION
Frames: 4
Frame Time: 0.041667
-18.532188 -158.343155 -82.611496 -78.564900 -1.885297 180.224035 0.000004 -9.563783 2.098726 15.699705 -0.348450 1.255188 0.000001 -9.562883 1.686210 0.194270 -0.140366 0.122165 -0.000001 -9.673435 0.846336 -0.905225 -3.682657 -0.529560 -0.000001 -9.710378 0.000017 0.170343 -0.492799 -0.983542 0.000004 -12.484805 -1.248421 -7.469774 -0.157378 0.981489 0.000001 -5.748138 -0.502860 1.960695 6.246727 0.886420 0.000000 -5.682358 -1.001948 4.066638 0.369919 0.370687 -0.000003 -9.728100 0.000006 -0.000000 -0.000000 -0.000000 0.000002 -8.917732 -5.270833 -0.000008 11.177716 -0.195405 -18.341640 0.000005 0.000010 10.188672 -45.517361 -70.050277 -27.519979 0.000005 0.000001 -1.292528 -20.897611 -0.461133 -22.582607 0.000003 -0.000014 0.223110 -4.120953 3.101655 -4.292839 2.781333 -3.192114 0.000001 -0.000005 0.000000 -11.447525 -0.000024 0.073392 0.000001 -0.000000 0.000000 0.000002 -8.917736 -5.270833 -0.000004 -8.689420 1.353840 18.341637 -0.000034 0.000007 15.169951 40.972898 65.745407 27.519997 -0.000041 0.000031 0.015326 27.689005 -0.007086 22.582598 -0.000009 -0.000008 -0.258358 1.617101 9.078407 4.292821 2.781368 -3.192099 -0.000002 0.000002 -0.000003 11.447524 0.000017 0.073383 -0.000003 0.000001 -0.000002 -9.107880 0.000004 -0.000027 16.304792 8.404623 2.304480 -0.000001 38.746075 0.000037 -9.703905 0.000002 -0.000001 -0.000005 37.141594 0.000023 9.588368 27.257362 -8.981832 0.000005 3.208221 0.000017 0.000000 0.000001 -0.000000 -0.000006 -0.000001 -12.564419 18.125749 -0.000000 -0.000003 -0.000011 0.000007 -4.358139 0.000000 -0.000001 0.000000 9.107885 0.000003 -0.000043 19.384318 -18.342186 -0.208140 0.000001 38.746094 0.000000 -3.905602 -0.000002 -0.000000 -0.000009 37.141590 0.000012 0.321391 -21.875330 4.262085 0.000010 3.208221 0.000010 -0.000000 -0.000002 0.000000 0.000005 -0.000006 -12.564433 16.097851 -0.000003 -0.000000 0.000036 0.000000 -4.448353 -0.000000 -0.000003 0.000002 
-18.520241 -158.329391 -82.627419 -78.471374 -2.181215 180.250987 0.000002 -9.563768 2.098705 15.777896 -0.336115 1.299907 0.000000 -9.562871 1.686204 0.250484 -0.139663 0.134510 -0.000002 -9.673441 0.846296 -0.856347 -3.685061 -0.551970 0.000001 -9.710370 0.000026 0.190253 -0.482328 -1.026701 -0.000002 -12.484774 -1.248473 -7.530938 -0.201989 1.004827 0.000000 -5.748131 -0.502901 1.972428 6.279935 0.889101 -0.000004 -5.682398 -1.001956 4.052683 0.373482 0.353465 -0.000002 -9.728085 -0.000030 -0.000000 -0.000000 -0.000000 -0.000002 -8.917702 -5.270898 -0.000007 11.131585 -0.177776 -18.341640 0.000002 0.000016 10.087549 -45.556877 -70.081689 -27.519968 0.000018 -0.000001 -1.482925 -20.989477 -0.531306 -22.582611 0.000002 -0.000016 0.233786 -4.043319 3.311876 -4.292818 2.781369 -3.192122 0.000008 0.000009 -0.000001 -11.447531 0.000027 0.073376 0.000001 0.000000 0.000002 -0.000001 -8.917725 -5.270896 -0.000005 -8.704649 1.403052 18.341637 -0.000039 0.000014 15.215913 41.223262 65.457022 27.520000 -0.000014 -0.000011 -0.000786 27.961678 0.000403 22.582617 -0.000002 0.000006 -0.262895 1.643462 9.089816 4.292812 2.781348 -3.192104 0.000004 -0.000005 0.000004 11.447535 -0.000018 0.073387 0.000004 -0.000001 0.000002 -9.107884 0.000001 0.000014 16.180107 8.321599 2.361631 0.000003 38.746067 -0.000007 -9.403789 0.000001 0.000000 -0.000004 37.141571 -0.000020 9.459290 27.050319 -8.950854 0.000035 3.208222 0.000018 0.000000 0.000000 -0.000001 -0.000009 -0.000008 -12.564434 18.023944 -0.000003 -0.000001 -0.000001 -0.000016 -4.358169 -0.000003 0.000001 -0.000000 9.107889 0.000012 -0.000001 19.255394 -18.693258 -0.232724 0.000001 38.746086 -0.000014 -3.391866 0.000004 0.000000 -0.000004 37.141579 0.000002 0.160203 -21.777770 4.407395 -0.000027 3.208214 0.000024 0.000000 -0.000002 0.000000 0.000017 0.000010 -12.564426 16.004344 -0.000003 0.000000 -0.000014 -0.000008 -4.448396 -0.000003 0.000001 0.000001 
-18.504993 -158.319580 -82.646057 -78.344947 -2.492486 180.255768 -0.000003 -9.563776 2.098732 15.873580 -0.319446 1.336733 -0.000000 -9.562865 1.686160 0.336438 -0.140107 0.142370 0.000000 -9.673439 0.846314 -0.808639 -3.728389 -0.545049 0.000001 -9.710390 0.000004 0.167333 -0.508120 -0.980449 0.000002 -12.484798 -1.248499 -7.543970 -0.147066 0.999686 -0.000002 -5.748079 -0.502895 1.994723 6.304833 0.858842 -0.000000 -5.682384 -1.002002 4.027170 0.377700 0.331958 -0.000005 -9.728092 -0.000010 0.000000 0.000000 0.000000 -0.000000 -8.917709 -5.270931 -0.000004 11.173160 -0.248343 -18.341633 -0.000015 -0.000010 10.018224 -45.522306 -70.086654 -27.519970 -0.000005 0.000031 -1.450289 -21.012129 -0.520142 -22.582592 0.000026 0.000027 0.241827 -4.208763 3.291351 -4.292846 2.781369 -3.192110 0.000001 0.000002 0.000001 -11.447549 0.000036 0.073397 -0.000001 0.000002 -0.000002 0.000000 -8.917713 -5.270931 -0.000002 -8.620355 1.394741 18.341648 -0.000022 0.000035 15.184458 41.375353 65.204572 27.519991 -0.000026 0.000006 0.109804 28.187216 -0.051832 22.582649 -0.000004 0.000023 -0.277764 1.702724 9.266960 4.292835 2.781353 -3.192117 0.000012 -0.000010 0.000004 11.447535 0.000006 0.073358 0.000013 -0.000000 0.000002 -9.107885 -0.000005 0.000020 16.064538 8.276947 2.444571 0.000003 38.746052 0.000002 -9.063914 -0.000000 0.000001 -0.000001 37.141579 0.000057 9.290344 26.799275 -8.945200 0.000022 3.208221 0.000012 0.000000 -0.000000 0.000001 -0.000007 0.000005 -12.564438 17.953038 -0.000004 0.000000 -0.000002 -0.000015 -4.358181 0.000001 0.000005 -0.000003 9.107887 0.000002 -0.000002 19.151794 -19.035983 -0.239633 -0.000010 38.746090 -0.000003 -2.849454 0.000006 -0.000000 -0.000008 37.141575 0.000026 0.034831 -21.712447 4.607041 -0.000004 3.208214 0.000022 0.000001 0.000000 -0.000000 -0.000004 -0.000010 -12.564443 15.874142 0.000004 -0.000001 -0.000003 -0.000015 -4.448399 0.000002 0.000003 0.000000 
-18.493393 -158.314178 -82.672623 -78.170272 -2.879549 180.232177 0.000001 -9.563792 2.098693 15.989649 -0.313565 1.416951 0.000003 -9.562873 1.686211 0.445976 -0.142097 0.154388 -0.000002 -9.673449 0.846332 -0.737315 -3.785451 -0.534764 -0.000001 -9.710384 0.000007 0.150891 -0.537401 -0.936237 0.000000 -12.484798 -1.248504 -7.594148 -0.084926 0.994723 -0.000001 -5.748112 -0.502858 2.045133 6.350556 0.831829 0.000004 -5.682391 -1.001958 3.995759 0.383982 0.302913 -0.000002 -9.728092 0.000010 0.000000 -0.000000 -0.000000 0.000003 -8.917713 -5.270947 -0.000002 11.203878 -0.320670 -18.341637 0.000012 0.000009 9.950770 -45.537612 -70.082467 -27.519958 0.000014 -0.000015 -1.544903 -21.052313 -0.555103 -22.582615 0.000013 0.000016 0.257272 -4.302541 3.425124 -4.292825 2.781349 -3.192061 -0.000003 0.000009 -0.000001 -11.447540 -0.000011 0.073408 -0.000000 0.000000 0.000000 0.000003 -8.917713 -5.270948 -0.000000 -8.539023 1.369187 18.341631 -0.000003 0.000012 15.290579 41.659680 64.861375 27.520002 -0.000023 0.000008 0.109169 28.598559 -0.052223 22.582623 0.000005 0.000001 -0.262414 1.628551 9.155463 4.292828 2.781341 -3.192084 -0.000004 -0.000003 0.000005 11.447551 0.000004 0.073398 -0.000010 -0.000001 0.000003 -9.107881 -0.000010 -0.000029 15.974762 8.131949 2.586044 -0.000005 38.746067 0.000031 -8.703768 0.000000 -0.000001 -0.000010 37.141579 0.000009 9.125926 26.585022 -8.957318 0.000003 3.208221 0.000020 0.000000 -0.000001 -0.000000 -0.000003 -0.000006 -12.564460 17.838738 -0.000004 0.000004 -0.000010 -0.000016 -4.358169 -0.000002 0.000007 -0.000002 9.107884 -0.000024 -0.000011 19.091574 -19.549559 -0.193151 0.000001 38.746090 -0.000011 -2.258394 -0.000001 -0.000001 0.000001 37.141590 0.000009 -0.020847 -21.571614 4.847001 0.000025 3.208221 0.000025 0.000000 -0.000013 0.000000 -0.000005 -0.000001 -12.564468 15.640006 -0.000007 0.000001 0.000013 0.000000 -4.448386 -0.000001 -0.000001 0.000001 
